<svg width="200" height="43" viewBox="0 0 200 43" fill="none" xmlns="http://www.w3.org/2000/svg">
<g clip-path="url(#clip0_105_8)">
<path d="M0 17.7598L3.31781 30.8385L17.2777 35.637L27.4564 27.044L0 17.7598Z" fill="#A866EC"/>
<path d="M36.9724 3.35116L23.948 0L13.0547 9.99262L15.6838 23.0756L36.9724 3.35116Z" fill="#A866EC"/>
<path d="M30.644 43L40.2683 33.5724L37.4226 19.042L24.918 14.4956L30.644 43Z" fill="#A866EC"/>
<path d="M59.075 24.4361V8.28444H50.0918V6.40675H70.3019V8.28444H61.3187V24.4361H59.075Z" fill="black"/>
<path d="M88.3286 20.4199C88.3286 21.4283 88.1771 22.2237 87.8782 22.8018C87.5793 23.3799 87.1202 23.8015 86.5052 24.071C85.8901 24.3361 85.1018 24.5056 84.1489 24.5795C83.1917 24.6534 82.0569 24.6925 80.7401 24.6925C79.2372 24.6925 77.9594 24.6143 76.9112 24.4621C75.863 24.31 75.0141 23.9971 74.373 23.5233C73.7277 23.0495 73.2599 22.341 72.9697 21.3935C72.6795 20.446 72.5322 19.1811 72.5322 17.6034C72.5322 16.069 72.6752 14.8433 72.961 13.9175C73.2469 12.9961 73.706 12.2963 74.3471 11.8268C74.9881 11.3574 75.8284 11.0445 76.8679 10.888C77.9074 10.7315 79.1808 10.6533 80.6881 10.6533C82.412 10.6533 83.837 10.775 84.9675 11.0184C86.098 11.2618 86.9426 11.7225 87.5014 12.4049C88.0601 13.0873 88.3373 14.0827 88.3373 15.3997V18.2988H74.7932C74.8018 19.2985 74.8712 20.1026 75.0054 20.7068C75.1397 21.3109 75.4039 21.763 75.8024 22.0672C76.2009 22.3715 76.7943 22.5758 77.5869 22.6714C78.3795 22.767 79.4321 22.8192 80.7488 22.8192C81.9356 22.8192 82.8928 22.7974 83.6205 22.7496C84.3481 22.7018 84.9026 22.5975 85.2794 22.4367C85.6562 22.2759 85.9118 22.0368 86.046 21.7152C86.1803 21.3935 86.2453 20.9632 86.2453 20.4242H88.3286V20.4199ZM80.6795 12.5353C79.4104 12.5353 78.3839 12.5831 77.6086 12.6744C76.8332 12.77 76.2399 12.9482 75.837 13.2221C75.4299 13.4916 75.157 13.8914 75.0141 14.4261C74.8712 14.9563 74.7932 15.6605 74.7845 16.5254H86.176V15.3997C86.176 14.8346 86.111 14.3696 85.9811 13.9958C85.8511 13.6263 85.5999 13.3307 85.2274 13.1178C84.8549 12.9048 84.3005 12.7527 83.5728 12.6657C82.8452 12.5788 81.8793 12.5353 80.6795 12.5353Z" fill="black"/>
<path d="M91.2998 24.4361V6.40675H93.5434V16.8166L102.492 10.9141H105.896L96.3891 17.2643L106.273 24.4361H102.929L93.5478 17.499V24.4361H91.2998Z" fill="black"/>
<path d="M108.513 24.4361V6.40675H110.756V24.4361H108.513Z" fill="black"/>
<path d="M114.551 24.4361V10.9141H116.794V12.7092C117.128 12.2572 117.544 11.8747 118.042 11.5704C118.536 11.2661 119.198 11.0358 120.03 10.8837C120.862 10.7315 121.949 10.6533 123.3 10.6533C125.063 10.6533 126.453 10.8272 127.471 11.1705C128.489 11.5139 129.212 12.1311 129.641 13.0134C130.07 13.8958 130.287 15.1476 130.287 16.7688V24.4317H128.03V16.7732C128.03 15.8517 127.952 15.1085 127.796 14.5434C127.64 13.9784 127.372 13.5524 126.995 13.2655C126.618 12.9787 126.094 12.7831 125.435 12.6831C124.773 12.5875 123.932 12.5353 122.91 12.5353C121.351 12.5353 120.125 12.6657 119.237 12.9222C118.349 13.1786 117.721 13.5872 117.353 14.1348C116.985 14.6868 116.803 15.404 116.803 16.2907V24.4361H114.551Z" fill="black"/>
<path d="M139.521 24.4361L132.479 10.9141H135.121L141.016 22.7453H141.037L147.049 10.9141H149.553L142.51 24.4361H139.521Z" fill="black"/>
<path d="M166.479 20.4199C166.479 21.4283 166.327 22.2237 166.029 22.8018C165.73 23.3799 165.271 23.8015 164.656 24.071C164.04 24.3361 163.252 24.5056 162.299 24.5795C161.342 24.6534 160.207 24.6925 158.891 24.6925C157.388 24.6925 156.11 24.6143 155.062 24.4621C154.013 24.31 153.164 23.9971 152.523 23.5233C151.878 23.0495 151.41 22.341 151.12 21.3935C150.83 20.446 150.683 19.1811 150.683 17.6034C150.683 16.069 150.826 14.8433 151.111 13.9175C151.397 12.9961 151.856 12.2963 152.497 11.8268C153.138 11.3574 153.979 11.0445 155.018 10.888C156.058 10.7315 157.331 10.6533 158.839 10.6533C160.562 10.6533 161.987 10.775 163.118 11.0184C164.248 11.2618 165.093 11.7225 165.652 12.4049C166.21 13.0873 166.488 14.0827 166.488 15.3997V18.2988H152.944C152.952 19.2985 153.022 20.1026 153.156 20.7068C153.29 21.3109 153.554 21.763 153.953 22.0672C154.351 22.3715 154.945 22.5758 155.737 22.6714C156.53 22.767 157.582 22.8192 158.899 22.8192C160.086 22.8192 161.043 22.7974 161.771 22.7496C162.499 22.7018 163.053 22.5975 163.43 22.4367C163.807 22.2759 164.062 22.0368 164.196 21.7152C164.331 21.3935 164.396 20.9632 164.396 20.4242H166.479V20.4199ZM158.83 12.5353C157.561 12.5353 156.534 12.5831 155.759 12.6744C154.984 12.77 154.39 12.9482 153.987 13.2221C153.58 13.4916 153.307 13.8914 153.164 14.4261C153.022 14.9563 152.944 15.6605 152.935 16.5254H164.326V15.3997C164.326 14.8346 164.261 14.3696 164.131 13.9958C164.002 13.6263 163.75 13.3307 163.378 13.1178C163.005 12.9048 162.451 12.7527 161.723 12.6657C160.996 12.5788 160.034 12.5353 158.83 12.5353Z" fill="black"/>
<path d="M169.429 24.4361V10.9141H171.672V12.7092C172.006 12.2572 172.422 11.8747 172.92 11.5704C173.414 11.2661 174.076 11.0358 174.908 10.8837C175.739 10.7315 176.827 10.6533 178.178 10.6533C179.941 10.6533 181.331 10.8272 182.349 11.1705C183.367 11.5139 184.09 12.1311 184.519 13.0134C184.948 13.8958 185.164 15.1476 185.164 16.7688V24.4317H182.908V16.7732C182.908 15.8517 182.83 15.1085 182.674 14.5434C182.518 13.9784 182.249 13.5524 181.873 13.2655C181.496 12.9787 180.972 12.7831 180.313 12.6831C179.651 12.5875 178.81 12.5353 177.788 12.5353C176.229 12.5353 175.003 12.6657 174.115 12.9222C173.227 13.1786 172.599 13.5872 172.231 14.1348C171.863 14.6868 171.681 15.404 171.681 16.2907V24.4361H169.429Z" fill="black"/>
<path d="M194.343 24.4361C192.97 24.4361 191.87 24.297 191.042 24.0188C190.215 23.7406 189.617 23.2495 189.245 22.541C188.877 21.8325 188.69 20.8372 188.69 19.5549V7.21955H190.934V10.9184H199.229V12.7744H190.934V19.5593C190.934 20.4373 191.012 21.0893 191.172 21.5196C191.333 21.9499 191.657 22.2324 192.143 22.3628C192.632 22.4975 193.36 22.5627 194.334 22.5627C195.2 22.5627 195.88 22.5366 196.374 22.4801C196.868 22.4236 197.232 22.2802 197.466 22.0411C197.7 21.8021 197.847 21.4109 197.912 20.8632C197.972 20.3156 198.007 19.5462 198.007 18.5509H199.995C199.995 19.8505 199.917 20.8893 199.757 21.6717C199.597 22.4541 199.311 23.0452 198.904 23.4451C198.497 23.8449 197.921 24.1101 197.184 24.2448C196.448 24.3796 195.504 24.4361 194.343 24.4361Z" fill="black"/>
<path d="M50.2822 31.1949H50.9536V35.7413H50.2822V31.1949Z" fill="black"/>
<path d="M55.3543 32.125H55.3413V35.7413H54.6699V31.1949H55.4496L58.3602 34.8112H58.3732V31.1949H59.0446V35.7413H58.2649L55.3543 32.125Z" fill="black"/>
<path d="M63.4148 32.125H63.4018V35.7413H62.7305V31.1949H63.5101L66.4208 34.8112H66.4338V31.1949H67.1051V35.7413H66.3255L63.4148 32.125Z" fill="black"/>
<path d="M73.0394 31.0819C74.8672 31.0819 75.5602 32.3032 75.5602 33.4681C75.5602 34.633 74.8672 35.8543 73.0394 35.8543C71.2116 35.8543 70.5186 34.633 70.5186 33.4681C70.5186 32.3032 71.2116 31.0819 73.0394 31.0819ZM73.0394 31.6687C72.0042 31.6687 71.1942 32.2685 71.1942 33.4725C71.1942 34.6764 72.0085 35.2763 73.0394 35.2763C74.0703 35.2763 74.8846 34.6764 74.8846 33.4725C74.8846 32.2685 74.0746 31.6687 73.0394 31.6687Z" fill="black"/>
<path d="M82.3816 31.1949H83.105L81.1212 35.7413H80.4022L78.3838 31.1949H79.1461L80.7747 35.0415L82.3816 31.1949Z" fill="black"/>
<path d="M88.952 34.4156H86.7301L86.154 35.7413H85.4307L87.4794 31.1949H88.246L90.2948 35.7413H89.5281L88.952 34.4156ZM87.8346 31.8208L86.9856 33.8332H88.7052L87.8346 31.8208Z" fill="black"/>
<path d="M94.2972 31.7817H92.582V31.1949H96.6795V31.7817H94.9643V35.7413H94.2929V31.7817H94.2972Z" fill="black"/>
<path d="M99.8369 31.1949H103.48V31.7817H100.508V33.0987H103.389V33.6854H100.508V35.1546H103.54V35.7413H99.8369V31.1949Z" fill="black"/>
<path d="M116.509 31.1949H119.03C119.996 31.1949 120.424 31.6208 120.424 32.3337C120.424 32.8857 120.138 33.1595 119.766 33.2942V33.3073C120.294 33.429 120.624 33.7637 120.624 34.4287C120.624 35.072 120.173 35.7413 119.19 35.7413H116.513V31.1949H116.509ZM119.017 33.0726C119.519 33.0726 119.753 32.7987 119.753 32.438C119.753 32.0251 119.536 31.7817 118.978 31.7817H117.18V33.0726H119.017ZM119.004 35.1546C119.753 35.1546 119.948 34.7677 119.948 34.3852C119.948 34.0288 119.744 33.6594 119.06 33.6594H117.18V35.1546H119.004Z" fill="black"/>
<path d="M124.089 31.1949H124.76V34.1027C124.76 34.9242 125.306 35.2676 126.138 35.2676C126.969 35.2676 127.515 34.9242 127.515 34.1027V31.1949H128.186V34.0201C128.186 35.2415 127.502 35.8543 126.138 35.8543C124.773 35.8543 124.089 35.2415 124.089 34.0201V31.1949Z" fill="black"/>
<path d="M131.867 31.1949H132.539V35.7413H131.867V31.1949Z" fill="black"/>
<path d="M136.255 31.1949H136.926V35.1546H139.681V35.7413H136.255V31.1949Z" fill="black"/>
<path d="M142.882 31.1949H145.177C146.533 31.1949 147.157 32.0859 147.157 33.4029C147.157 34.6721 146.607 35.7413 145.216 35.7413H142.882V31.1949ZM145.186 35.1546C146.291 35.1546 146.486 34.2244 146.486 33.416C146.486 32.6205 146.226 31.7817 145.056 31.7817H143.553V35.1546H145.186Z" fill="black"/>
<path d="M160.199 31.1949H160.871V35.7413H160.199V31.1949Z" fill="black"/>
<path d="M169.117 31.1949H170.048V35.7413H169.377V31.9729H169.364L167.601 35.7413H167.003L165.245 32.0468H165.232V35.7413H164.561V31.1949H165.505L167.302 34.9633L169.117 31.1949Z" fill="black"/>
<path d="M173.708 31.1949H176.043C177.039 31.1949 177.559 31.6513 177.559 32.4988C177.559 33.3508 177.039 33.9201 176.086 33.9201H174.379V35.7413H173.708V31.1949ZM175.999 33.3334C176.666 33.3334 176.887 32.9726 176.887 32.5119C176.887 32.0772 176.632 31.7817 176.121 31.7817H174.384V33.3334H175.999Z" fill="black"/>
<path d="M183.692 34.4156H181.47L180.894 35.7413H180.171L182.22 31.1949H182.986L185.035 35.7413H184.268L183.692 34.4156ZM182.575 31.8208L181.726 33.8332H183.445L182.575 31.8208Z" fill="black"/>
<path d="M191.883 32.8335C191.783 32.1989 191.285 31.6687 190.336 31.6687C189.271 31.6687 188.586 32.2815 188.586 33.529C188.586 34.3896 189.05 35.2719 190.302 35.2719C191.094 35.2719 191.692 34.8981 191.887 34.0027H192.558C192.459 35.0068 191.579 35.8543 190.293 35.8543C189.149 35.8543 187.915 35.2198 187.915 33.4551C187.915 32.1294 188.738 31.0819 190.289 31.0819C191.203 31.0819 192.441 31.4774 192.558 32.8335H191.883Z" fill="black"/>
<path d="M197.214 31.7817H195.499V31.1949H199.596V31.7817H197.881V35.7413H197.21V31.7817H197.214Z" fill="black"/>
</g>
<defs>
<clipPath id="clip0_105_8">
<rect width="200" height="43" fill="white"/>
</clipPath>
</defs>
</svg>
